<svg width="33" height="30" viewBox="0 0 33 30" xmlns="http://www.w3.org/2000/svg"><path d="M23.998 20.498v2h-2v-2h2zm-6-2h2v-2h-2v2zm4-6h-2v2h-4v6h4v2h-4v2h4v2h2v-2h4v-6h-4v-2h4v-2h-4v-2zm-9.752 6.458a9.034 9.034 0 1 1 18.067.001 9.034 9.034 0 0 1-18.067 0zM10.322 13c-1.718 0-3.359-.178-4.79-.512a13.435 13.435 0 0 1-1.908-.588c-1.398-.56-2.301-1.305-2.301-1.9 0-.442.498-.966 1.325-1.435C4.483 9.441 7.239 10 10.322 10c2.06 0 3.973-.25 5.565-.677a11.079 11.079 0 0 0-3.864 3.617c-.554.039-1.123.06-1.701.06zm0 11.999c-2.547 0-4.926-.391-6.7-1.1-1.396-.56-2.3-1.305-2.3-1.9 0-.442.499-.966 1.326-1.435 1.835.877 4.591 1.435 7.674 1.435.114 0 .227-.001.34-.003a10.988 10.988 0 0 0 1.337 2.945c-.547.039-1.108.058-1.677.058zm-9-9c0-.441.499-.965 1.326-1.434 1.835.877 4.591 1.435 7.674 1.435.108 0 .093-.001.198-.003-.261.942-.52 1.934-.52 2.96v.041c-1-.006-3.18-.183-4.589-.51-.69-.162-1.27-.359-1.847-.589-1.4-.559-2.241-1.305-2.241-1.9zM1.323 4c0-.595.904-1.341 2.3-1.9 1.774-.71 4.153-1.1 6.7-1.1 2.547 0 4.926.39 6.7 1.1 1.397.559 2.3 1.305 2.3 1.9s-.903 1.34-2.3 1.9c-.578.23-1.217.427-1.908.587-1.432.334-3.074.512-4.792.512s-3.359-.178-4.79-.512A13.435 13.435 0 0 1 3.623 5.9C2.226 5.341 1.323 4.595 1.323 4zm17.83 4.122c-.055-.04-.272-.082-.33-.122.851-.588 1.176-1.27 1.176-2V4c0-2.21-4.476-4-9.999-4C4.477 0 0 1.79 0 4v2c0 .728.487 1.411 1.338 2C.487 8.586 0 9.27 0 10v1.999c0 .729.487 1.412 1.338 2-.851.588-1.338 1.27-1.338 2v2c0 .728.487 1.411 1.338 2C.487 20.585 0 21.268 0 21.997v2c0 2.209 4.638 4 10.161 4a24.29 24.29 0 0 0 4.219-.359 11.105 11.105 0 0 0 6.859 2.358c6.097 0 11.061-4.943 11.061-11.04 0-6.098-4.923-11.04-11.021-11.04-.727 0-1.438.07-2.128.205z" fill="#C0C7CF" fill-rule="evenodd"/></svg>