<svg width="81" height="74" viewBox="0 0 81 74" xmlns="http://www.w3.org/2000/svg"><title>Page 1</title><g fill="none" fill-rule="evenodd"><path d="M58.286 32.143c0 16.094-13.049 29.143-29.143 29.143C13.048 61.286 0 48.237 0 32.143 0 16.048 13.048 3 29.143 3c16.094 0 29.143 13.048 29.143 29.143" fill="#DEE2E7"/><path d="M80 31.571c0 9.902-14.418 19.286-32.035 19.286-3.338 0-7.902-.482-10.25-1.286V71.43c3.203 1.018 6.89 1.285 10.25 1.285 17.617 0 32.035-8.098 32.035-18V31.571" fill="#FFF"/><path d="M47.482 14.429c-17.796 0-32.625 7.98-32.625 17.888 0 1.702.426 3.349 1.22 4.909l21.205 12.487C39.656 50.517 44.265 51 47.638 51 65.434 51 80 41.608 80 31.7c0-9.909-14.721-17.271-32.518-17.271" fill="#FFF"/><path d="M61 0v8M57 4h8M10 7v8M6 11h8M4 23v8M0 27h8" stroke="#BABEC2" stroke-width="2"/><path d="M16.078 37.225c-.795-1.56-1.22-3.207-1.22-4.908 0-9.908 14.828-17.888 32.624-17.888C65.278 14.429 80 21.79 80 31.699S65.434 51 47.638 51c-3.373 0-7.984-.483-10.356-1.287" stroke="#3F4B59" stroke-width="2"/><path d="M8.084 38.45l38.82-8.021 1.096.554-22.94 21.663-.053 20.068c-3.114-.176-14.632-5.092-17-13.056-.035-.119.077-21.208.077-21.208" fill="#F5BE58"/><path d="M8.084 38.45l38.82-8.021 1.096.554-22.94 21.663-.053 20.068c-3.114-.176-14.632-5.092-17-13.056-.035-.119.077-21.208.077-21.208zM42.286 63.571V54.43M42.286 68.143v-2.286M14.857 31.571l.016 5.715" stroke="#3F4B59" stroke-width="2"/><path d="M46.684 31.571l-8.97 18V71.43c3.204 1.018 6.89 1.285 10.251 1.285 17.617 0 32.035-8.098 32.035-18V31.571M25.143 52.143C15.849 49.467 9.208 44.299 8 38.429" stroke="#3F4B59" stroke-width="2"/></g></svg>