<svg xmlns="http://www.w3.org/2000/svg" width="42.97" height="43.57" viewBox="0 0 42.97 43.57"><path fill="#bebfc6" d="M40.62 26.92a8.14 8.14 0 0 0 2.38-5.7 8 8 0 0 0-.37-2.4 8.2 8.2 0 0 0-1.32-2.53v-.06a8 8 0 0 0-5.86-2.52v-1.55a9.71 9.71 0 0 1 6.08 2.12v-.75A9.31 9.31 0 0 0 33 5.25h-1a10 10 0 0 0-1.2.07 3.91 3.91 0 0 0 0-2A4.35 4.35 0 0 0 26.59 0a4.3 4.3 0 0 0-4.38 4.2v9.59a7.89 7.89 0 0 1 4.63-1.49 8 8 0 0 1 4.58 14.55A34.37 34.37 0 0 1 28 29.74l-1.21.95-.94.73a29.63 29.63 0 0 0-2.63 2.3l-1 .9v4.58a6 6 0 0 0 11.47.23 5.42 5.42 0 0 0 .22-1.54v-.46h.37a6.16 6.16 0 0 0 1.72-.22 5.72 5.72 0 0 0 4.21-5.43 5.28 5.28 0 0 0-.54-2.36 9.78 9.78 0 0 1-4.2.94V28.8a8 8 0 0 0 5.15-1.88zM2.35 26.92A8.14 8.14 0 0 1 0 21.22a8 8 0 0 1 .37-2.4 8.2 8.2 0 0 1 1.32-2.53v-.06a8 8 0 0 1 5.86-2.52v-1.55a9.71 9.71 0 0 0-6.08 2.12v-.75A9.31 9.31 0 0 1 10 5.25h1a10 10 0 0 1 1.2.07 3.91 3.91 0 0 1 0-2A4.35 4.35 0 0 1 16.38 0a4.3 4.3 0 0 1 4.38 4.2v9.59a7.89 7.89 0 0 0-4.63-1.49 8 8 0 0 0-4.58 14.55A34.37 34.37 0 0 0 15 29.74l1.21.95.93.73a29.6 29.6 0 0 1 2.63 2.3l1 .9v4.58a6 6 0 0 1-11.47.23 5.42 5.42 0 0 1-.22-1.54v-.46h-.36A6.16 6.16 0 0 1 7 37.21a5.72 5.72 0 0 1-4.2-5.44 5.27 5.27 0 0 1 .54-2.36 9.79 9.79 0 0 0 4.2.94V28.8a8 8 0 0 1-5.19-1.88z"/><path fill="#bebfc6" d="M25.65 14.9a5.87 5.87 0 0 0-3.6 1.22l-.56.42-.56-.42a5.87 5.87 0 0 0-3.6-1.22 5.94 5.94 0 0 0-3.37 10.82h.07l.06.06a29.68 29.68 0 0 0 3 2.51l1.1.86.85.66A27.88 27.88 0 0 1 21.46 32 28 28 0 0 1 24 29.86l.85-.66 1.1-.86a29.75 29.75 0 0 0 3-2.51l.06-.06h.07a5.94 5.94 0 0 0-3.43-10.87z"/></svg>