<svg xmlns="http://www.w3.org/2000/svg" width="37.29" height="37.32" viewBox="0 0 37.29 37.32"><path fill="#bebfc6" d="M34.54 8.94l.17.1-.26-.25a19 19 0 0 0-2.69-3.4A18.68 18.68 0 0 0 0 18.5a18.82 18.82 0 0 0 17 18.73c.56.05 1.12.08 1.68.08a19.14 19.14 0 0 0 12.83-5 18.5 18.5 0 0 0 5.81-13.48 18.26 18.26 0 0 0-2.78-9.89zm-5.5-2.58c3.61 2.38 4.79 4.08 5.14 5.08a16.32 16.32 0 0 1 .54 4.67 2.06 2.06 0 0 1-1.05 1 5.78 5.78 0 0 0-.93.66c-.31-.27-.62-.54-.92-.81a12.47 12.47 0 0 0-3.6-2.52 16.51 16.51 0 0 0-1.44-6.33 16.78 16.78 0 0 1 2.26-1.74zm-10.61-.55v.46-.46zm0 .46a19.26 19.26 0 0 1 6.55 2.08l.2.09a17 17 0 0 1 1 2.77l.12.49a7 7 0 0 1 .33 2.87 5.28 5.28 0 0 1-1.75 1.92l-.57.49a30.13 30.13 0 0 1-2.6 2.12c-1-.33-2.08-.71-3.08-1.07-1.19-.43-2.41-.87-3.69-1.26l-.19-.61c-.38-1.24-.78-2.53-1.1-3.87 0-.17-.09-.36-.15-.56a4.09 4.09 0 0 1-.2-.92c.07-.54 1.07-1.38 1.73-1.94l.49-.42a13.39 13.39 0 0 1 2.74-2 .81.81 0 0 0 .22-.17zM6.61 7.39a4.29 4.29 0 0 1 1.06-1.25c.21-.2.41-.39.57-.56l.47-.53a5.76 5.76 0 0 1 1.26-1.21c1.52-.91 3.62-1 5.46-1.17l1.35-.1.21.82c.15.54.29 1.09.42 1.64a17.48 17.48 0 0 0-5.2 4.61 7.25 7.25 0 0 0-2.16-.29 11.21 11.21 0 0 0-3.2.48c0-.26-.09-.52-.15-.76a3.38 3.38 0 0 1-.04-1.67zM1.68 19.15a11.52 11.52 0 0 1 .63-5.71 11.21 11.21 0 0 1 2.71-4.83l.11.45a6.1 6.1 0 0 1 .29 1.75 5.38 5.38 0 0 1-.65 1.75 9.33 9.33 0 0 0-.71 1.72 8.79 8.79 0 0 0-.21 1.67 4.87 4.87 0 0 1-.22 1.46 4.69 4.69 0 0 1-1.39 1.31zm6.91 11.38l-.45.42c-3.24-1.12-5.47-4.33-5.72-8.27 0-.23 0-.46-.07-.69a3.52 3.52 0 0 1 0-1 2.59 2.59 0 0 1 1.17-1.3 8.8 8.8 0 0 0 .73-.58 21.82 21.82 0 0 0 3.89 3.41 26.65 26.65 0 0 0 1.82 6.56 7.58 7.58 0 0 1-1.31 1.46zm9.2.4a10.75 10.75 0 0 1-3.31-.82l-.21-.08a12.91 12.91 0 0 1-2.89-1.43 16.36 16.36 0 0 1-.75-2.35l-.18-.66c-.09-.33-.22-.69-.34-1a5 5 0 0 1-.47-2.15 6 6 0 0 1 1.7-1.75l.42-.35c.66-.56 1.23-1 1.78-1.4l.93-.71c1.59.58 3.23 1.15 4.81 1.71l1.94.68.25.88c.48 1.64 1 3.33 1.37 5.08a7.41 7.41 0 0 1-1.72 1.74l-.65.54c-.17.14-.36.33-.58.54a5.9 5.9 0 0 1-2.05 1.54zm12.58-1.08c-.13.77-1.58 2-2.13 2.46l-.14.12c-1.16 1-2.75 2.34-4.45 2.51a8.49 8.49 0 0 1-3.18-.44l-.93-.24a12.42 12.42 0 0 1-.7-2.19 23.89 23.89 0 0 0 4.89-4.08l.32-.32a17.38 17.38 0 0 0 5.7-.4 4.38 4.38 0 0 1 .67 2.58zm2.24-1.45a2.56 2.56 0 0 1-.65.39 5.79 5.79 0 0 0-.41-1.17 2.86 2.86 0 0 1-.35-1.23 6.65 6.65 0 0 1 .69-1.7 10.77 10.77 0 0 0 .66-1.48 20.62 20.62 0 0 0 .73-3.75c.43-.39.89-.77 1.33-1.14l.69-.58a3.88 3.88 0 0 1 .36 2.38c-.13 2.75-1.47 6.87-3 8.28z"/></svg>