<svg xmlns="http://www.w3.org/2000/svg" width="41.27" height="38.39" viewBox="0 0 41.27 38.39"><path fill="#bebfc6" d="M40 17.85l-3.64-3.64c-1.12-1.12-2.1-2-3.49-.58L31.48 15l7.7 7.7 1.36-1.36c1.4-1.34.55-2.34-.54-3.49zM35.74 25.75l-7.3-7.3a1.4 1.4 0 0 1 .2-1.94l.56-.56a1.4 1.4 0 0 1 1.94-.2l7.3 7.3a1.4 1.4 0 0 1-.2 1.94l-.56.56a1.4 1.4 0 0 1-1.94.2zM27.66 18.83L17 29.46l-.68 5-.55 4 4-.55 5-.68 10.59-10.7zM24.6 36l-.2.2-4.8.66a3.44 3.44 0 0 0-2.28-2.28l.66-4.8.21-.21a1.37 1.37 0 0 1 1.7.37 1.36 1.36 0 0 1 .2 2 1.36 1.36 0 0 1 2 .2 1.36 1.36 0 0 1 .2 2A1.58 1.58 0 0 1 24.6 36zM22.6 0L0 22.6l9.57 9.57 22.6-22.6zM3 22.31l2.1-2.1 2.64 2.64 1.32-1.32-2.62-2.64 1.44-1.44 1.73 1.73 1.32-1.32-1.73-1.72 1.44-1.44 2.64 2.64L14.59 16l-2.64-2.64 1.44-1.44 1.73 1.73 1.32-1.32-1.74-1.7 1.44-1.44 2.64 2.64 1.32-1.32-2.64-2.63 1.44-1.44 1.73 1.73 1.32-1.32-1.74-1.72L22.31 3l6.83 6.83L9.86 29.14z"/></svg>