<svg xmlns="http://www.w3.org/2000/svg" width="39.26" height="30.91" viewBox="0 0 39.26 30.91"><path fill="#bebfc6" d="M27.82.09v2.13a9.45 9.45 0 0 0 2 .09v8.53h4.61v4.35h2.27v2.13H2.56v-2.13h2.13c.25-1.11-.08-2.81.17-3.93h2.82c.2-2.42 0-5.21.09-7.77 1.1-.32 2.1-.74 3.16-1.11.13-.58-.28-1.7.26-1.88.81-.07.27 1.21.43 1.79a17.67 17.67 0 0 0 3.14 1.21v4.87c.23.2.82 0 1.19.09v-3c1.2-.64 2.43-1.27 3.58-2q1.94 1 3.75 2v6.74c.29.2.94 0 1.37.09.2-3.19 0-6.74.09-10.07h2c.32-.68-.56-2.66 1.08-2.13zM10.16 19.55Q7.82 25.28 5.38 30.9H0q3.22-5.79 6.66-11.35zM21.42 19.55c.11.49.05 1.14.17 1.62h-3.84a9.31 9.31 0 0 1 .09-1.62zM29.1 19.55h3.58c2.18 3.8 4.48 7.47 6.57 11.35h-5.38c-1.6-3.77-3.2-7.54-4.77-11.35zM21.76 23c-.06.78.18 1.68.09 2.22-1.26-.19-3.17.1-4.35 0a5.87 5.87 0 0 1 .08-2.22zM22.1 27.82c.09 1 .19 2 .26 3.07-1.79-.06-3.81.11-5.46-.09.12-1 .16-2 .26-3z"/></svg>