<svg xmlns="http://www.w3.org/2000/svg" width="42.61" height="29.8" viewBox="0 0 42.61 29.8"><circle fill="#bebfc6" cx="21.32" cy="17.48" r="6.72"/><path fill="#bebfc6" d="M40.94 3.62h-13a.66.66 0 0 1-.62-.43l-1-2.76A.66.66 0 0 0 25.7 0h-8.81a.66.66 0 0 0-.62.43l-1 2.76a.66.66 0 0 1-.62.43H9.93V3.3a1.12 1.12 0 0 0-1.11-1.11H4.87A1.12 1.12 0 0 0 3.76 3.3v.32H1.63A1.68 1.68 0 0 0-.04 5.29v22.84a1.68 1.68 0 0 0 1.67 1.67H40.9a1.68 1.68 0 0 0 1.73-1.67V5.29a1.68 1.68 0 0 0-1.69-1.67zM21.32 26.83a9.35 9.35 0 1 1 9.35-9.35 9.35 9.35 0 0 1-9.35 9.35zm18-18.37h-6.5v-1.9h6.5v1.9z"/></svg>