<svg width="80" height="74" viewBox="0 0 80 74" xmlns="http://www.w3.org/2000/svg" xmlns:xlink="http://www.w3.org/1999/xlink"><title>Page 1</title><defs><path id="a" d="M0 73.75h80V0H0z"/></defs><g fill="none" fill-rule="evenodd"><path d="M78.75 31.25c0 17.259-13.991 31.25-31.25 31.25S16.25 48.509 16.25 31.25 30.241 0 47.5 0s31.25 13.991 31.25 31.25z" fill="#DEE2E7"/><path d="M68.75 72.5H75M0 72.5h2.5" stroke="#3F4B59" stroke-width="2"/><mask id="b" fill="#fff"><use xlink:href="#a"/></mask><path d="M77.5 72.5H80" stroke="#3F4B59" stroke-width="2" mask="url(#b)"/><path fill="#FFF" mask="url(#b)" d="M48.75 72.5H62.5V40H48.75zM11.25 72.5H25V61.25H11.25z"/><path stroke="#3F4B59" stroke-width="2" mask="url(#b)" d="M48.75 72.5H62.5V40H48.75zM11.25 72.5H25V61.25H11.25z"/><path fill="#DEE2E7" mask="url(#b)" d="M30 72.5h13.75V53.75H30z"/><path stroke="#3F4B59" stroke-width="2" mask="url(#b)" d="M30 72.5h13.75V53.75H30zM66.25 72.5H5"/><path fill="#F5BE58" mask="url(#b)" d="M63.75 10H49.436l3.536 3.535-18.476 18.476-9.722-9.722-20.33 20.328 7.045 7.1L23.89 37.314l9.722 9.723 26.43-26.432 3.708 3.708z"/><path stroke="#3F4B59" stroke-width="2" mask="url(#b)" d="M63.75 10H49.436l3.536 3.535-18.476 18.476-9.722-9.722-20.33 20.328 7.045 7.1L23.89 37.314l9.722 9.723 26.43-26.432 3.708 3.708z"/><path d="M69 28v8M65 32h8M34 9v8M30 13h8M9 22v8M5 26h8" stroke="#BABEC2" stroke-width="2" mask="url(#b)"/></g></svg>