<svg width="25" height="25" viewBox="0 0 25 25" xmlns="http://www.w3.org/2000/svg"><title>Icon Location Pin</title><path d="M10.13 21.647c.847.93 1.667 1.837 2.4 2.669a155.85 155.85 0 0 1 2.397-2.665c1.922-2.112 3.961-4.344 5.355-6.309a9.308 9.308 0 0 0 1.724-5.405 9.316 9.316 0 0 0-2.776-6.643 9.502 9.502 0 0 0-6.7-2.748c-2.62 0-4.99 1.05-6.707 2.748a9.329 9.329 0 0 0-2.772 6.643c0 .975.148 1.92.433 2.823a9.374 9.374 0 0 0 1.295 2.582c1.394 1.965 3.43 4.197 5.351 6.305M8.998 6.44a4.914 4.914 0 0 0 0 6.994 5.003 5.003 0 0 0 3.532 1.449 5 5 0 0 0 3.529-1.45 4.917 4.917 0 0 0 0-6.993 5 5 0 0 0-3.529-1.449 5.003 5.003 0 0 0-3.532 1.45m3.532-.908c-1.226 0-2.34.493-3.144 1.291a4.366 4.366 0 0 0-1.3 3.113h-.003a4.37 4.37 0 0 0 1.306 3.113 4.44 4.44 0 0 0 3.141 1.29 4.453 4.453 0 0 0 3.141-1.29 4.37 4.37 0 0 0 0-6.226 4.453 4.453 0 0 0-3.14-1.29m-.213 19.369c-.794-.919-1.679-1.89-2.59-2.891-1.937-2.127-3.988-4.378-5.397-6.357a10.043 10.043 0 0 1-1.371-2.733 9.774 9.774 0 0 1-.46-2.985A9.864 9.864 0 0 1 5.44 2.91 10.042 10.042 0 0 1 12.53 0c2.765 0 5.276 1.114 7.087 2.91a9.86 9.86 0 0 1 2.936 7.027 9.832 9.832 0 0 1-1.827 5.718c-1.409 1.983-3.46 4.234-5.397 6.357a170.093 170.093 0 0 0-2.594 2.895.277.277 0 0 1-.383.03c-.012-.012-.027-.023-.034-.034" fill="#333E4C" fill-rule="evenodd" opacity=".75"/></svg>