<svg xmlns="http://www.w3.org/2000/svg" width="36.24" height="32.22" viewBox="0 0 36.24 32.22"><path fill="#bebfc6" d="M35.1 0H1.15A1.15 1.15 0 0 0 0 1.15v29.92a1.15 1.15 0 0 0 1.15 1.15h33.94a1.15 1.15 0 0 0 1.15-1.15V1.15A1.15 1.15 0 0 0 35.1 0zm-7.19 2.49a1.53 1.53 0 1 1-1.54 1.53 1.53 1.53 0 0 1 1.51-1.53zm-4.51 0a1.53 1.53 0 1 1-1.53 1.53 1.53 1.53 0 0 1 1.53-1.53zm10.54 27.43H4.15l7.38-9.45 8.06 4.92 8.83-10.48 1.35 1.35v-4.6h-4.6l1.57 1.56-.24-.2-7.47 8.87-8.14-5-8.58 11V8.03h31.64v21.89zM32.41 5.56a1.53 1.53 0 1 1 1.53-1.53 1.53 1.53 0 0 1-1.53 1.53z"/></svg>