<svg xmlns="http://www.w3.org/2000/svg" width="34.66" height="31.55" viewBox="0 0 34.66 31.55"><path fill="#bebfc6" d="M14.21 13.16L.43 25.32A1.17 1.17 0 0 0 .27 27l.3.34a1.17 1.17 0 0 0 1.66 0L16 15.2z"/><path fill="#bebfc6" d="M29.48 10.43L29 9.92a1.09 1.09 0 0 0-1.54-.15l-.06.05L21 2.51v-.06a1.09 1.09 0 0 0 0-1.54L20.63.4a1.09 1.09 0 0 0-1.54-.15L18.2 1l-5.82 5.18-1.88 1.66a1.09 1.09 0 0 0 0 1.54l.45.51a1.09 1.09 0 0 0 1.54.15l.01-.04 6.5 7.31-.06.05a1.09 1.09 0 0 0 0 1.54l.45.51a1.09 1.09 0 0 0 1.54.15L29.44 12a1.09 1.09 0 0 0 .04-1.57zM34.66 30.09a1.48 1.48 0 0 1-1.51 1.46h-21.1a1.48 1.48 0 0 1-1.51-1.46 1.48 1.48 0 0 1 1.51-1.46h21.1a1.48 1.48 0 0 1 1.51 1.46zM32.37 26a1.35 1.35 0 0 1-1.22 1.46H14.06A1.35 1.35 0 0 1 12.84 26a1.35 1.35 0 0 1 1.22-1.46h17.09A1.35 1.35 0 0 1 32.37 26z"/></svg>