<svg xmlns="http://www.w3.org/2000/svg" width="20" height="20" viewBox="0 0 20 20"><path fill="#BEBFC6" d="M7.1 14.1l.8-1.1-.9-.9-1.1.8c-.2-.1-.4-.2-.7-.3L5 11.2H3.8l-.2 1.4c-.2.1-.5.2-.7.3l-1.1-.8-1 .9.8 1.1c-.1.2-.2.4-.3.7L0 15v1.2l1.4.2c.1.2.2.5.3.7l-.8 1.1.9.9 1.1-.8c.2.1.4.2.7.3l.2 1.4H5l.2-1.4c.2-.1.5-.2.7-.3l1.1.9.9-.9-.8-1.1c.1-.2.2-.4.3-.7l1.4-.2V15l-1.4-.2c-.1-.3-.2-.5-.3-.7zm-2.7 2.8c-.7 0-1.2-.6-1.2-1.2s.6-1.2 1.2-1.2 1.2.6 1.2 1.2-.5 1.2-1.2 1.2zM20 7.5V6.2L18.7 6c0-.2-.1-.3-.1-.5l1.1-.7-.5-1.2-1.3.3c-.1-.1-.2-.3-.3-.4l.8-1.1-.9-.9-1.1.8c-.1-.1-.3-.2-.4-.3l.3-1.3-1.2-.5-.7 1.1c-.2 0-.3-.1-.5-.1L13.8 0h-1.2l-.2 1.3c-.2 0-.3.1-.5.1L11.2.3 9.9.8l.3 1.3c-.1.1-.3.2-.4.3l-1.1-.8-.9.9.8 1.1-.3.3L7 3.7l-.5 1.1 1.1.7c0 .2-.1.3-.1.5l-1.3.2v1.2l1.3.2c0 .2.1.3.1.5l-1.1.8.5 1.2 1.3-.3c.1.1.2.3.3.4l-.8 1.1.9.9 1.1-.8c.1.1.3.2.4.3L9.9 13l1.2.5.7-1.1c.2 0 .3.1.5.1l.2 1.3h1.2l.2-1.3c.2 0 .3-.1.5-.1l.7 1.1 1.2-.5-.3-1.3c.1-.1.3-.2.4-.3l1.1.8.9-.9-.8-1.1c.1-.1.2-.3.3-.4l1.3.3.5-1.2-1.1-.7c0-.2.1-.3.1-.5l1.3-.2zm-6.9 2.1c-1.5 0-2.7-1.2-2.7-2.7s1.2-2.7 2.7-2.7c1.5 0 2.7 1.2 2.7 2.7s-1.2 2.7-2.7 2.7z"/></svg>