<svg width="32" height="25" viewBox="0 0 32 25" xmlns="http://www.w3.org/2000/svg"><path d="M24.605-2C29.051.843 32 5.822 32 11.491s-2.949 10.65-7.395 13.491C27.3 21.685 29 16.863 29 11.491S27.3 1.298 24.605-2M3 11.491c0 5.372 1.7 10.194 4.394 13.491C2.948 22.141 0 17.16 0 11.491S2.948.843 7.394-2C4.7 1.298 3 6.119 3 11.491m6 0c0 3.475.862 6.606 2.24 8.796A9.998 9.998 0 0 1 6 11.491a10 10 0 0 1 5.24-8.796C9.861 4.886 9 8.017 9 11.491m11.76-8.796A10 10 0 0 1 26 11.491a10 10 0 0 1-5.24 8.796c1.377-2.19 2.24-5.321 2.24-8.796 0-3.474-.863-6.605-2.24-8.796M12 11.491a4 4 0 1 0 8 0 4 4 0 0 0-8 0" fill="none" fill-rule="evenodd"/></svg>