<svg xmlns="http://www.w3.org/2000/svg" width="37.3" height="33.15" viewBox="0 0 37.3 33.15"><path fill="#bebfc6" d="M36.11 0H1.18A1.18 1.18 0 0 0 0 1.18v30.78a1.18 1.18 0 0 0 1.18 1.18h34.93a1.18 1.18 0 0 0 1.18-1.18V1.18A1.18 1.18 0 0 0 36.11 0zm-7.4 2.56a1.58 1.58 0 1 1-1.58 1.58 1.58 1.58 0 0 1 1.58-1.58zm-4.64 0a1.58 1.58 0 1 1-1.58 1.58 1.58 1.58 0 0 1 1.58-1.58zm10.85 28.22H2.36V8.29h32.56v22.49zM33.34 5.72a1.58 1.58 0 1 1 1.58-1.58 1.58 1.58 0 0 1-1.57 1.57z"/><path fill="#bebfc6" d="M12.7 25.29a1.34 1.34 0 0 1-.77-.24l-6-4.2a1.35 1.35 0 0 1 0-2.21l6-4.2a1.35 1.35 0 0 1 1.54 2.21l-4.43 3.09 4.43 3.09a1.35 1.35 0 0 1-.77 2.45zM24.51 25.29a1.35 1.35 0 0 1-.77-2.45l4.43-3.09-4.43-3.09a1.35 1.35 0 1 1 1.54-2.21l6 4.2a1.35 1.35 0 0 1 0 2.21l-6 4.2a1.34 1.34 0 0 1-.77.24zM16.46 26.31a1.35 1.35 0 0 1-1.24-1.86l4.29-10.43a1.35 1.35 0 0 1 2.49 1l-4.29 10.43a1.35 1.35 0 0 1-1.25.83z"/></svg>