<svg xmlns="http://www.w3.org/2000/svg" width="37.9" height="25.04" viewBox="0 0 37.9 25.04"><path fill="#bebfc6" d="M13.67 7.55v-3H.89v8.08h1.8a3.17 3.17 0 0 0 .92 2.12v-2.08h1.7v.89h-1v2.61a4.27 4.27 0 0 1-2.23-2.61H.43a.43.43 0 0 1-.43-.44v-9c0-.32.26-.43.54-.43H14c.29 0 .54.11.54.43V8a4.21 4.21 0 0 0-.89-.42zM10.82 25h-10A13.4 13.4 0 0 1 4 21.37a15.15 15.15 0 0 1 3.6-2.15 10.6 10.6 0 0 0 3.48 3 11 11 0 0 0 3.5-3 16.28 16.28 0 0 1 1.61.78 9.14 9.14 0 0 0-1.2.4 6.87 6.87 0 0 0-2.73 2.15 9.9 9.9 0 0 0-1.32 2.21l-.12.28zm1.68-13.62a5.34 5.34 0 0 1-3.56 1.4 8.28 8.28 0 0 1-.89 0 6 6 0 0 0 .31 4 4.76 4.76 0 0 0 2.06 1.93 1.26 1.26 0 0 0 1.37 0 4.76 4.76 0 0 0 2.06-1.93 6 6 0 0 0 .31-4 2.77 2.77 0 0 1-.94-.55 3.08 3.08 0 0 1-.71-.88zM9.74 7.82a4.72 4.72 0 0 0-3.35 2.89 5.61 5.61 0 0 0-.33 1.65c-.19 2.89.27 5.23-1.52 8a16 16 0 0 1 2.94-1.61l.26-.11a3.41 3.41 0 0 0 .75.68c.09 0 .29-.52.35-.86a7.19 7.19 0 0 0 1.19.83 1.94 1.94 0 0 0 2.12 0 7.2 7.2 0 0 0 1.19-.83c.05.35.26.91.35.86a3.41 3.41 0 0 0 .75-.68l.26.11a16.48 16.48 0 0 1 2.09 1.06l.46-.12c-1.42-2.66-1-4.67-1.13-7.34a5.6 5.6 0 0 0-.33-1.65A4.15 4.15 0 0 0 14.74 9a2.94 2.94 0 0 0-2.27-.85h-.3a3.19 3.19 0 0 0-2.43-.3zm9.76-1.45V1h17.4v11.13h-2.59a4.32 4.32 0 0 1-1.23 2.63v-2.63h-3.41a5.78 5.78 0 0 1 .05 1h2.48v3.38a5.38 5.38 0 0 0 2.88-3.38h2.24a.58.58 0 0 0 .57-.57V.57c0-.43-.34-.57-.73-.57H19.22c-.39 0-.73.15-.73.57v6.77a3.42 3.42 0 0 1 .5-.57 4.78 4.78 0 0 1 .5-.4zM11.54 25a9.22 9.22 0 0 1 1.23-2c2.38-3 4.78-2 6.91-3.63A5.27 5.27 0 0 0 22 21.22a5.27 5.27 0 0 0 2.93 0 5.31 5.31 0 0 0 2.29-1.92c1.41 1.09 3.09 1 4.78 1.87A8 8 0 0 1 35.29 25h-23.7zM20 11.47c0-.39.14-.39.46-.3.87.26 4.78-.47 5.71-.89.16-.07.32-.12.45 0a.89.89 0 0 1 .16.34 7.23 7.23 0 0 1 .13 1.19v.2c0 .27.11.29.19.23a.76.76 0 0 0 .21-.29c.13-.25.27-.4.42-.4.33 0 .52.83.42 1.85s-.46 1.85-.8 1.85a.15.15 0 0 0-.16.14 5.15 5.15 0 0 1-2.41 3.32 2.3 2.3 0 0 1-2.61 0 5 5 0 0 1-2.49-3.36c0-.1-.07-.14-.16-.14-.33 0-.69-.83-.79-1.85s.08-1.85.42-1.85c.16 0 .33.19.47.51.08.15.24.33.32.17a5.62 5.62 0 0 0 0-.82zm5.78-4.63a2.59 2.59 0 0 1 2.39 1.74 6.17 6.17 0 0 1 .4 2.63 3.81 3.81 0 0 1 .38 2.33c-.07.72-.34 2-1 2.43a6.06 6.06 0 0 1-2.78 3.5 3.07 3.07 0 0 1-3.21.06A6 6 0 0 1 19 16c-.71-.43-1-1.71-1-2.43a3.81 3.81 0 0 1 .38-2.33 4.85 4.85 0 0 1 1.13-3.82c1.49-1.49 4.57-1.8 5.86-.72.15.11.15.14.36.14z"/></svg>