<svg xmlns="http://www.w3.org/2000/svg" width="42.26" height="27.62" viewBox="0 0 42.26 27.62"><path fill="#bebfc6" d="M25.65 24.34h-9l-.93-1H0v1.88a2.41 2.41 0 0 0 2.4 2.4h37.45a2.41 2.41 0 0 0 2.4-2.4v-1.89H26.58zm-19.52 1.8H4.29v-1.35h1.84zm3.42 0H7.72v-1.35h1.83z"/><path fill="#bebfc6" d="M5.29 3H37v21.07h2V2.22A2.23 2.23 0 0 0 36.75 0H5.51a2.23 2.23 0 0 0-2.22 2.22v21.85h2zM21.13.83a.69.69 0 1 1-.69.69.69.69 0 0 1 .69-.69z"/><path fill="#bebfc6" d="M15.4 18.36a1.3 1.3 0 0 1-.75-.24L8.79 14a1.31 1.31 0 0 1 0-2.15l5.86-4.05a1.31 1.31 0 0 1 1.5 2.2l-4.32 3 4.32 3a1.31 1.31 0 0 1-.75 2.39zM26.89 18.36a1.31 1.31 0 0 1-.75-2.36l4.32-3-4.32-3a1.31 1.31 0 1 1 1.5-2.15l5.86 4.09a1.31 1.31 0 0 1 0 2.15l-5.86 4.09a1.31 1.31 0 0 1-.75.24zM19.06 19.35a1.31 1.31 0 0 1-1.21-1.81L22 7.39a1.31 1.31 0 1 1 2.42 1l-4.15 10.15a1.31 1.31 0 0 1-1.21.81z"/></svg>