<svg width="81" height="87" viewBox="0 0 81 87" xmlns="http://www.w3.org/2000/svg"><title>Page 1</title><g fill="none" fill-rule="evenodd"><path d="M62 53c0 17.12-13.88 31-31 31C13.88 84 0 70.12 0 53c0-17.12 13.88-31 31-31 17.12 0 31 13.88 31 31" fill="#DEE2E7"/><path fill="#FFF" d="M25.578 28H25.5L9 37.593v17.814L25.538 65 42 55.407V37.593z"/><path stroke="#3F4B59" stroke-width="2" d="M25.578 28H25.5L9 37.593v17.814L25.538 65 42 55.407V37.593z"/><path stroke="#3F4B59" stroke-width="2" d="M9 38l16.54 10L42 38"/><path d="M25 48v18" stroke="#2A5082" stroke-width="2"/><path d="M77 19v8M73 23h8M10 12v8M6 16h8" stroke="#BABEC2" stroke-width="2"/><path fill="#F5BE58" d="M41.578 4H41.5L25 13.558v51.884L41.538 75 58 65.442V13.558z"/><path stroke="#3F4B59" stroke-width="2" d="M41.578 4H41.5L25 13.558v51.884L41.538 75 58 65.442V13.558z"/><path stroke="#3F4B59" stroke-width="2" d="M25 13l16.538 10L58 13M41 23v52"/><path fill="#DEE2E7" d="M57.578 27H57.5L41 36.667v38.666L57.538 85 74 75.333V36.667z"/><path stroke="#3F4B59" stroke-width="2" d="M57.578 27H57.5L41 36.667v38.666L57.538 85 74 75.333V36.667z"/><path stroke="#3F4B59" stroke-width="2" d="M41 37l16.538 10L74 37M58 46v38"/><path d="M73 5a4 4 0 1 1-8 0 4 4 0 0 1 8 0z" stroke="#BABEC2" stroke-width="2"/></g></svg>