<svg width="25" height="25" viewBox="0 0 25 25" xmlns="http://www.w3.org/2000/svg"><title>Icon Close</title><path d="M12.547 7.435L5.757.646A1.248 1.248 0 0 0 3.99.658L.658 3.988a1.253 1.253 0 0 0-.012 1.77l6.789 6.789-6.789 6.789a1.248 1.248 0 0 0 .012 1.769l3.33 3.33c.49.49 1.285.498 1.77.012l6.789-6.789 6.789 6.79c.488.488 1.277.48 1.769-.012l3.33-3.331c.49-.49.498-1.284.012-1.77l-6.789-6.788 6.79-6.79a1.248 1.248 0 0 0-.012-1.768L21.105.658a1.253 1.253 0 0 0-1.77-.012l-6.788 6.789z" fill="#FFF" fill-rule="evenodd"/></svg>