<svg xmlns="http://www.w3.org/2000/svg" width="39.86" height="33.59" viewBox="0 0 39.86 33.59"><path fill="#bebfc6" d="M39.37 30.37h-1.11v-.58h-1.85v-1h1.32v-2.22h-4.91v2.26h1.32v1h-2v.58h-4.68.05l-5.18-16.2 3.25-2.69 9 6.46h.07v7.32h1.08v-7.43l.71-.59a.89.89 0 0 0 .22-1.09L31.2 4.85a3 3 0 0 0-.91-1.05L24 .16a.88.88 0 0 0-1.11.07l-1.58 1.45a1 1 0 0 0-.22 1.13l2.29 6.07L7.42 22.09H7.2a2.69 2.69 0 0 0-2 4.55v2.13h-.5a2.73 2.73 0 0 0-2.49 1.61H.49a.49.49 0 0 0-.49.49v2.23a.49.49 0 0 0 .49.49h38.88a.49.49 0 0 0 .49-.49v-2.25a.49.49 0 0 0-.49-.48zm-21.16-9.56l2.57 1.34-3.12 2.22zm3.86 2.95l1.77 5.53-5.46-2.9zm-1.25-3.9l-2.28-1.19.25-1.58.9-.75zM6.39 24.78a.81.81 0 1 1 1.46.49.81.81 0 0 1-1.44-.51zm.81 2.7a2.69 2.69 0 0 0 .71-.1v1.72H6.49v-1.72a2.69 2.69 0 0 0 .71.1zm2-.85a2.68 2.68 0 0 0 .74-1.85 2.71 2.71 0 0 0 0-.31l5.21-4.31-1.65 10.21H9.16zm7.56 3.74l.32-2.37 4.4 2.34z"/></svg>