<svg width="40" height="38" viewBox="0 0 40 38" xmlns="http://www.w3.org/2000/svg"><title>Coin Stack</title><path d="M27.5 27.867H30v-2.534h-2.5v2.534zm-5-5.067H25v-2.533h-2.5V22.8zm5-7.6H25v2.533h-5v7.6h5v2.534h-5V30.4h5v2.533h2.5V30.4h5v-7.6h-5v-2.533h5v-2.534h-5V15.2zm-1.303 20.257c-6.236 0-11.292-5.124-11.292-11.444 0-6.319 5.056-11.443 11.292-11.443 6.237 0 11.293 5.124 11.293 11.443 0 6.321-5.055 11.444-11.293 11.444zM12.5 16.467c-2.147 0-4.199-.226-5.989-.649a16.632 16.632 0 0 1-2.385-.745c-1.749-.708-2.876-1.653-2.876-2.406 0-.56.623-1.224 1.656-1.818 2.294 1.11 5.74 1.818 9.594 1.818 2.576 0 4.966-.317 6.955-.858a13.933 13.933 0 0 0-4.829 4.582c-.693.05-1.403.076-2.126.076zm0 15.2c-3.184 0-6.157-.496-8.375-1.394-1.748-.708-2.875-1.653-2.875-2.406 0-.56.623-1.224 1.656-1.818 2.294 1.11 5.74 1.818 9.594 1.818.142 0 .284-.002.425-.004a14.01 14.01 0 0 0 1.671 3.73 29.17 29.17 0 0 1-2.096.074zm-11.25-11.4c0-.56.623-1.224 1.656-1.818 2.294 1.11 5.74 1.818 9.594 1.818.134 0 .266-.002.397-.004a14.211 14.211 0 0 0-.5 3.802c-2.11-.007-4.125-.231-5.886-.647a16.632 16.632 0 0 1-2.385-.745c-1.749-.708-2.876-1.653-2.876-2.406zm0-15.2c0-.754 1.127-1.699 2.875-2.407 2.218-.898 5.191-1.393 8.375-1.393s6.158.495 8.375 1.393c1.748.708 2.875 1.653 2.875 2.407 0 .753-1.127 1.698-2.875 2.406a16.27 16.27 0 0 1-2.385.745c-1.791.423-3.843.649-5.99.649-2.147 0-4.199-.226-5.989-.649a16.632 16.632 0 0 1-2.385-.745C2.377 6.765 1.25 5.82 1.25 5.067zm24.947 4.961c-.91 0-1.797.09-2.66.261-.068-.052-.136-.104-.21-.154C24.392 9.39 25 8.525 25 7.6V5.067C25 2.269 19.404 0 12.5 0S0 2.269 0 5.067V7.6c0 .923.609 1.789 1.673 2.533C.609 10.878 0 11.745 0 12.667V15.2c0 .923.609 1.789 1.673 2.533C.609 18.478 0 19.345 0 20.267V22.8c0 .923.609 1.789 1.673 2.533C.609 26.078 0 26.945 0 27.867V30.4c0 2.798 5.596 5.067 12.5 5.067 1.846 0 3.595-.164 5.174-.454A13.622 13.622 0 0 0 26.197 38C33.821 38 40 31.738 40 24.013c0-7.724-6.179-13.985-13.803-13.985z" fill="#06CF74" fill-rule="evenodd"/></svg>