<svg xmlns="http://www.w3.org/2000/svg" width="42.26" height="27.62" viewBox="0 0 42.26 27.62"><path fill="#bebfc6" d="M25.65 24.34h-9l-.93-1H0v1.88a2.41 2.41 0 0 0 2.4 2.4h37.45a2.41 2.41 0 0 0 2.4-2.4v-1.89H26.58zm-19.52 1.8H4.29v-1.35h1.84zm3.42 0H7.72v-1.35h1.83z"/><path fill="#bebfc6" d="M5.29 3H37v21.07h2V2.22A2.23 2.23 0 0 0 36.75 0H5.51a2.23 2.23 0 0 0-2.22 2.22v21.85h2zM21.13.83a.69.69 0 1 1-.69.69.69.69 0 0 1 .69-.69z"/><path fill="#bebfc6" d="M17.88 20.14a3.25 3.25 0 0 1 6.5 0h9.1V18l-3.19-.69-.67-1.62 1.77-2.74-3-3-2.79 1.71L24 11l-.68-3.19H19L18.3 11l-1.62.67-2.75-1.79-3 3 1.77 2.75-.7 1.66-3.21.71v2.14h7.77z"/></svg>