<svg xmlns="http://www.w3.org/2000/svg" width="43.69" height="43.69" viewBox="0 0 43.69 43.69"><path fill="#bebfc6" fill-rule="evenodd" d="M26.67 0a22.24 22.24 0 0 1 7.15 3l-.92 4a18.47 18.47 0 0 1 3.84 3.83l4-.93a22.23 22.23 0 0 1 3 7.15l-3.45 2.15a18.47 18.47 0 0 1 0 5.42l3.45 2.14a22.26 22.26 0 0 1-3 7.15l-4-.92a18.45 18.45 0 0 1-3.83 3.84l.93 4a22.23 22.23 0 0 1-7.15 3l-2.15-3.45a18.46 18.46 0 0 1-5.42 0L17 43.69a22.25 22.25 0 0 1-7.15-3l.92-4a18.44 18.44 0 0 1-3.84-3.83l-4 .93a22.23 22.23 0 0 1-3-7.15l3.45-2.15a18.46 18.46 0 0 1 0-5.42L0 17a22.24 22.24 0 0 1 3-7.14l4 .92a18.46 18.46 0 0 1 3.83-3.84L9.81 3A22.24 22.24 0 0 1 17 0l2.15 3.45a18.46 18.46 0 0 1 5.42 0L26.67 0zm1 7.84a15.15 15.15 0 1 0 8.22 19.79 15.15 15.15 0 0 0-8.27-19.79z"/><path fill="#bebfc6" d="M23.91 18.33L25 19.41l3.49-3.49 1.51-.5 1.47-2.12L30 11.86l-2.11 1.49-.52 1.49-3.49 3.49zm-5.57 4.29l-.81-.81L13 26.32a2.56 2.56 0 0 0-.64 2.76A5.8 5.8 0 0 0 14.25 31a2.56 2.56 0 0 0 2.75-.69l4.52-4.51-.8-.8-1.79 1.79c-.63.63-1.39-.13-.76-.76l1.83-1.8-.86-.86-1.79 1.79c-.63.63-1.39-.13-.76-.76l1.79-1.79zM21 17.73l.66-.66 4.6 4.6-.66.66-4.6-4.6zm3.77 12.16l-.59-2.42-7.6-7.6-2.42-.59L12.88 18l-.66-2.48.26-.26 2.15 2.15a.42.42 0 0 0 .6 0l1.68-1.68a.42.42 0 0 0 0-.6L14.75 13l.26-.26 2.48.66 1.28 1.28.6 2.47 7.54 7.54 2.47.6 1.28 1.28.68 2.43-.26.26-2.15-2.15a.42.42 0 0 0-.6 0l-1.68 1.68a.42.42 0 0 0 0 .6l2.15 2.15-.26.26-2.48-.66z"/></svg>