<svg xmlns="http://www.w3.org/2000/svg" width="35.57" height="32.77" viewBox="0 0 35.57 32.77"><path fill="#bebfc6" d="M35.54 8.29L32.66 0l-2.92 8.29v22.88a1.59 1.59 0 0 0 1.59 1.59H34a1.59 1.59 0 0 0 1.59-1.59v-4.39zM33.44 4l1.17 3.32c-.18 0-.44-.1-.78-.49a1.3 1.3 0 0 1-2.32 0c-.38.4-.63.5-.81.47L31.87 4zM31.1 26.39V8.88a.29.29 0 1 1 .59 0v17.51a.29.29 0 1 1-.59 0zm2.54 0V9a.29.29 0 1 1 .59 0v17.39a.29.29 0 1 1-.59 0zm.36 5.55h-2.64a.77.77 0 0 1-.77-.77v-3.54h4.13v3.55a.77.77 0 0 1-.72.76zM23.5 0h-22v3.86h-1a.51.51 0 1 0 0 1h1v3.08h-1a.51.51 0 1 0 0 1h1V12h-1a.51.51 0 1 0 0 1h1v3.07h-1a.51.51 0 1 0 0 1h1v3.07h-1a.51.51 0 1 0 0 1h1v3.07h-1a.51.51 0 1 0 0 1h1v3h-1a.51.51 0 1 0 0 1h1v3.55h22a2.53 2.53 0 0 0 2.5-2.52V2.53A2.53 2.53 0 0 0 23.5 0zm.84 30.24a.84.84 0 0 1-.84.84H3.2v-1.86h1.06a.94.94 0 1 0-.06-1h-1v-3h1a.94.94 0 1 0 .07-1h-1v-3.04h1a.94.94 0 1 0 0-1h-1V17.1h1a.94.94 0 1 0 0-1h-1V13h1a.94.94 0 1 0 0-1h-1V8.95h1a.94.94 0 1 0-.08-1h-1V4.87h1.07a.94.94 0 1 0-.06-1h-1V1.69h20.3a.84.84 0 0 1 .84.84z"/><path fill="#bebfc6" d="M8.03 5.52h13.82v10.25H8.03zM8.03 18.63h13.82v1.35H8.03zM8.03 22.54h13.82v1.35H8.03zM8.03 26.45h13.82v1.35H8.03z"/></svg>