<svg xmlns="http://www.w3.org/2000/svg" width="25.58" height="40.49" viewBox="0 0 25.58 40.49"><path fill="#bebfc6" d="M6.09 19.6h13.34a1.82 1.82 0 0 1 .18.74 1.55 1.55 0 0 1-.09.55H6.03a1.73 1.73 0 0 1-.09-.57 1.94 1.94 0 0 1 .15-.72zM0 38.37a2.15 2.15 0 0 0 4.29 0 3.83 3.83 0 0 1 2.18-3.45l14.55-7.39c6.26-3.28 5.94-11.48-.13-14.62l-1.49-.76-4.73 2.4 4.28 2.17c2.91 1.74 3.37 5.15.13 7L4.54 31.11A8.12 8.12 0 0 0 0 38.39zM10.89 7.82L6.47 5.57a3.83 3.83 0 0 1-2.18-3.45 2.15 2.15 0 0 0-4.29 0A8.12 8.12 0 0 0 4.54 9.4l1.62.82 4.73-2.4zm10.38 30.55a3.83 3.83 0 0 0-2.18-3.45l-4.42-2.25 4.73-2.4 1.62.82a8.12 8.12 0 0 1 4.54 7.28 2.15 2.15 0 0 1-4.29 0zM10.89 25.94L6.48 23.7c-3.16-1.62-2.87-5.39.13-7l14.41-7.32a8.12 8.12 0 0 0 4.54-7.28 2.15 2.15 0 0 0-4.29 0 3.83 3.83 0 0 1-2.18 3.45L4.67 12.88a8.12 8.12 0 0 0-.13 14.62l1.62.82 4.73-2.4zm-2.62-3.25h9l-2.53 1.29h-4l-2.53-1.29zm2.53-6.18h4l2.53 1.29h-9z"/></svg>