<svg width="28" height="32" viewBox="0 0 28 30" xmlns="http://www.w3.org/2000/svg"><g fill="#dee7ed" fill-rule="evenodd"><path d="M20.35 15.51L19.14 15h-4.43a1 1 0 0 0-.91-.61 1.13 1.13 0 0 0-1.11 1.12.89.89 0 0 0 .6.92v6.12l.5 1.33.5-1.33v-6.12a1.22 1.22 0 0 0 .5-.51h4.43z"/><path d="M14 1.73h-.49a9.64 9.64 0 0 1 1.4 2.88 11 11 0 0 1 4.28 1.26l-.81 1.45.7.41.82-1.44a11.24 11.24 0 0 1 3.52 3.52l-1.49.87.4.71 1.49-.87a11.39 11.39 0 0 1 1.34 5h-1.69v.82h1.69a11.19 11.19 0 0 1-1.3 4.88l-1.46-.86-.4.71 1.45.85a11.25 11.25 0 0 1-3.53 3.52L19.07 24l-.7.41.84 1.48a11.08 11.08 0 0 1-4.81 1.28v-1.66h-.8v1.61a10.93 10.93 0 0 1-4.85-1.33l.83-1.46-.7-.41-.83 1.47a11.39 11.39 0 0 1-3.47-3.52L6 21.06l-.4-.71-1.39.81a11.33 11.33 0 0 1-1.31-4.47A9.51 9.51 0 0 1 0 15.21v.6A14.13 14.13 0 0 0 14 30a14.06 14.06 0 0 0 14-14.18A14 14 0 0 0 14 1.73z"/><path d="M11 4.29V2.14H6.75V0H4.63v2.14H.4v6.43h4.23v2.14H.4v2.14h4.23V15h2.12v-2.14H11V6.43H6.75V4.29H11zM4.63 6.43H2.52V4.29h2.11v2.14zm4.23 2.14v2.14H6.75V8.57h2.11z"/></g></svg>