<svg xmlns="http://www.w3.org/2000/svg" width="34.42" height="39.37" viewBox="0 0 34.42 39.37"><path fill-rule="evenodd" fill="#bebfc6" d="M.09 21.42v-.16a17.1 17.1 0 0 1 .28-5.61v-.17A17.23 17.23 0 0 1 9.49 3.91H9.64a17.11 17.11 0 0 1 1.68-.71l1.51-.24c3.83-.62 6.82.6 8.58 3.32a13.89 13.89 0 0 0-6-.56 13.94 13.94 0 0 0-4.38 1.33h-.08a13.82 13.82 0 0 0-7.13 9v.13a14 14 0 0 0-.26 4.68v.12q0 .27.08.53l-1.86 5.3a17.08 17.08 0 0 1-1.59-5.39zm14.81.41l1.82 1.83 1.09-1.09h.26l1.36 1.84 1-.77-1.34-1.81a1.6 1.6 0 0 0 .24-.78l5.58-5.54-1.82-1.83-5.78 5.74-6.83-9.21-1 .77 6.86 9.24a1.61 1.61 0 0 0-.13.33l-1.3 1.29zm-9.37 1L3.75 27.9l-1.78 5.07 2.38-.45c3.42 7.27 11.48 8.52 19.53 5-6.68 2.4-11.65-.81-13.9-6.07l2.55-.48-7-8.15zm22.31-4.34l2.68-4.66 2.68-4.66h-2.42c-2-7.77-9.72-10.48-18.28-8.5 7-1.13 11.3 2.93 12.56 8.52h-2.6l2.7 4.65 2.7 4.65zm5.5-5l-2.47 4.3a14 14 0 0 1 0 3.37 13.81 13.81 0 0 1-14.14 12 13.89 13.89 0 0 1-2.11-.23l-1 .2c2.24 2.83 5.62 3.7 9.56 2.29l1.63-.59a17.22 17.22 0 0 0 9.52-17.39v-.16a17.07 17.07 0 0 0-.9-3.77zm-26 .09l.26-.43-1.37-.82-.26.43 1.37.82zm19.6 11.55l1.37.82-.26.43-1.37-.82.26-.43zM14.45 10.57l1.09-.28-.88-3.46-1.09.28.88 3.46zm5.5 21.66l-.88-3.46 1.09-.28.88 3.46z"/></svg>