<svg xmlns="http://www.w3.org/2000/svg" width="46.6" height="29.04" viewBox="0 0 46.6 29.04"><path fill="#bebfc6" d="M31.18 15.82L21 19.79l-10.65-4v3.9c0 3.51 4.77 6.35 10.65 6.35s10.21-2.84 10.21-6.35z"/><path fill="#bebfc6" d="M24.66 14.89V6.26h5.19L21 2.95 0 10.78l6.81 2.54V16a.94.94 0 0 0-.21 1.55v1.92h.15l-2 8.77c.05.42 1.8.81 2.54.78s2.39-.39 2.34-.82l-1.91-8.75h.14v-1.92A.94.94 0 0 0 7.64 16v-2.37l2.67 1 10.65 4 10.14-3.81z"/><path fill="#bebfc6" d="M46.6 7.25H40V0h-6.93v7.49h-7.26l.06 6.15h7.3l.03 7.01H40V13.4h6.6V7.25z"/></svg>