<svg width="79" height="67" viewBox="0 0 79 67" xmlns="http://www.w3.org/2000/svg"><title>Page 1</title><g fill="none" fill-rule="evenodd"><path d="M58.065 34.525c0 14.253-11.554 25.806-25.807 25.806-14.253 0-25.806-11.553-25.806-25.806S18.005 8.718 32.258 8.718s25.807 11.554 25.807 25.807" fill="#DEE2E7"/><path d="M55.32 30.298l14.523-24M40.798 10.57L55.32 30.3M27.097 44.847l13.7-34.276M11.613 29.363l15.484 15.484" stroke="#3F4B59" stroke-width="2"/><path d="M17.05 29.207a5.298 5.298 0 1 1-10.594 0 5.298 5.298 0 0 1 10.595 0" fill="#F5BE58"/><path d="M17.05 29.207a5.298 5.298 0 1 1-10.594 0 5.298 5.298 0 0 1 10.595 0z" stroke="#3F4B59" stroke-width="2"/><path d="M46.095 10.57a5.298 5.298 0 1 1-10.595.002 5.298 5.298 0 0 1 10.595-.001" fill="#F5BE58"/><path d="M46.095 10.57a5.298 5.298 0 1 1-10.595.002 5.298 5.298 0 0 1 10.595-.001z" stroke="#3F4B59" stroke-width="2"/><path d="M32.218 44.898a5.298 5.298 0 1 1-10.595 0 5.298 5.298 0 0 1 10.595 0" fill="#F5BE58"/><path d="M32.218 44.898a5.298 5.298 0 1 1-10.595 0 5.298 5.298 0 0 1 10.595 0z" stroke="#3F4B59" stroke-width="2"/><path d="M60.618 30.298a5.298 5.298 0 1 1-10.595.001 5.298 5.298 0 0 1 10.595 0" fill="#F5BE58"/><path d="M74 50v8M70 54h8M65 43v8M61 47h8M74 37v8M70 41h8" stroke="#BABEC2" stroke-width="2"/><path d="M60.618 30.298a5.298 5.298 0 1 1-10.595.001 5.298 5.298 0 0 1 10.595 0z" stroke="#3F4B59" stroke-width="2"/><path d="M75.14 6.298a5.298 5.298 0 1 1-10.595 0 5.298 5.298 0 0 1 10.595 0" fill="#F5BE58"/><path d="M75.14 6.298a5.298 5.298 0 1 1-10.595 0 5.298 5.298 0 0 1 10.595 0zM70.968 65.492h2.58M76.129 65.492h2.58M0 65.492h5.161M68.387 65.492H7.742" stroke="#3F4B59" stroke-width="2"/></g></svg>