<svg xmlns="http://www.w3.org/2000/svg" width="33.67" height="35.26" viewBox="0 0 33.67 35.26"><path fill="#bebfc6" d="M1.18 27.6c-.18.27-.5.8-1.11 6.96l-.07.7h33.67l-.07-.7c-.61-6.16-.94-6.69-1.08-6.92-1.33-1.77-4.83-3.22-10.41-5.13v-1.12c-.44.35-.87.65-1.28.92v1l-4 7.24-4-7.24v-1c-.41-.26-.84-.57-1.28-.92v1.08C6 24.37 2.51 25.83 1.18 27.6z"/><path fill="#bebfc6" d="M11.63 20.6c2.05 1.68 3.65 2.4 5.17 2.4h.07c1.53 0 3.13-.72 5.13-2.4 1.44-1.18 1.81-5.25 1.82-5.3 1.16-.67 1.18-2.23 1-3.4H8.81c-.17 1.18-.14 2.75 1 3.4 0 .04.37 4.13 1.82 5.3zM26.24 10.62V9.05l-2.18-.45V6.51A5.93 5.93 0 0 0 20 .89l-.18-.07v7.79h-1.28V0h-3.4v8.61h-1.28V.78l-.19.06A5.91 5.91 0 0 0 9.5 6.51v2.1l-2.06.45v1.57z"/></svg>