<svg xmlns="http://www.w3.org/2000/svg" width="37.64" height="30.72" viewBox="0 0 37.64 30.72"><path fill="#bebfc6" d="M35.59 3.76v19.83l.54.33 1.34.84a1.89 1.89 0 0 0 .17-.78V1.9a1.9 1.9 0 0 0-1.9-1.9H7a1.9 1.9 0 0 0-1.9 1.87h28.59a1.9 1.9 0 0 1 1.9 1.89z"/><path fill="#bebfc6" d="M13.84 26.58a6.81 6.81 0 0 1-3-6.88l4.47 2.88a.82.82 0 0 0 1.13-.24l2-3.09a.82.82 0 0 0-.24-1.13l-4.47-2.88A6.8 6.8 0 0 1 24.36 21l8 5 .25-17.62h-19.6V4.86h-11a1.9 1.9 0 0 0-1.9 1.9v22.09a1.9 1.9 0 0 0 1.9 1.9h24.06l-5.57-3.72a6.78 6.78 0 0 1-6.66-.45z"/></svg>