<svg width="25" height="25" viewBox="0 0 25 25" xmlns="http://www.w3.org/2000/svg"><title>Icon Dollar Sign</title><path d="M20.003 16.393c0 1.584-.573 2.856-1.718 3.818-1.146.961-2.75 1.536-4.812 1.726V25h-2.047v-3.004c-2.431-.05-4.563-.478-6.396-1.285v-3.945c.867.429 1.91.807 3.13 1.136 1.22.329 2.31.523 3.266.583v-4.633l-1.002-.388c-1.972-.777-3.37-1.621-4.191-2.533C5.41 10.019 5 8.891 5 7.546c0-1.444.565-2.632 1.696-3.564 1.13-.931 2.707-1.496 4.73-1.696V0h2.047v2.227c2.281.1 4.343.557 6.186 1.374l-1.404 3.497a16.153 16.153 0 0 0-4.782-1.166v4.409c1.942.747 3.325 1.394 4.147 1.942.821.548 1.424 1.15 1.808 1.808.383.658.575 1.425.575 2.302zm-4.498.224c0-.419-.17-.772-.508-1.061-.339-.289-.847-.588-1.524-.897v3.721c1.355-.229 2.032-.817 2.032-1.763zm-6.007-9.07c0 .438.152.799.456 1.083.304.284.794.575 1.472.874V5.992c-1.286.19-1.928.708-1.928 1.554z" fill="none" fill-rule="evenodd"/></svg>