<svg xmlns="http://www.w3.org/2000/svg" width="37.7" height="33.38" viewBox="0 0 37.7 33.38"><path fill="#bebfc6" d="M14.08 18.86c-1.69-.64-2.39-1.06-2.39-1.72s.42-1.12 1.72-1.12a6.6 6.6 0 0 1 2.87.68l.58-2.25a7.17 7.17 0 0 0-2.89-.66v-1.76h-2v1.89c-2.13.42-3.37 1.8-3.37 3.55 0 1.93 1.46 2.93 3.59 3.65 1.48.5 2.11 1 2.11 1.73s-.78 1.24-1.91 1.24a7 7 0 0 1-3.31-.88l-.6 2.33a8 8 0 0 0 3.39.86v1.87h2v-2c2.29-.4 3.55-1.91 3.55-3.69s-.96-2.89-3.34-3.72zm12-12c-6.4 0-11.58-.9-11.58-2v2.07c-.42 0-.84-.06-1.27-.06a13.27 13.27 0 1 0 9.41 22.6c1.09.06 2.24.1 3.44.1 6.4 0 11.58-.9 11.58-2v-3.93c0 1.11-5.18 2-11.58 2h-.79a13.15 13.15 0 0 0 .8-2.31c6.39 0 11.57-.9 11.57-2V17.4c0 1.09-5 2-11.2 2a13.21 13.21 0 0 0-.34-2.32c6.38 0 11.54-.9 11.54-2v-3.93c0 1.11-5.18 2-11.58 2h-1.62a13.34 13.34 0 0 0-1.91-2.4c1.12.06 2.3.1 3.53.1 6.4 0 11.58-.9 11.58-2V4.92c.01 1.04-5.14 1.94-11.54 1.94zm-2.11 13.26A10.75 10.75 0 1 1 13.22 9.37a10.76 10.76 0 0 1 10.79 10.75zM26.08.01c-6.4 0-11.58.9-11.58 2v.31c0 1.11 5.18 2 11.58 2s11.58-.9 11.58-2v-.31C37.67.9 32.52 0 26.12 0z"/></svg>