<svg xmlns="http://www.w3.org/2000/svg" width="20" height="16" viewBox="0 0 20 16"><path fill="#BEBFC6" d="M10.1 0C3.6 0 0 4.3 0 7.4c0 4.8 4.3 7.4 7.8 8.3 3.6.9 4.9-.7 4.8-2.6-.1-2.3 1.1-2.3 1.9-2.2.8.1 5.5 1.2 5.5-2.4C20 4 16.5 0 10.1 0zM8.8 1.2c.7 0 1.2.6 1.2 1.2s-.6 1.4-1.2 1.4-1.3-.6-1.3-1.3.6-1.3 1.3-1.3zM3.1 8.8c-.4 0-.6-.3-.6-.6s.3-.6.6-.6c.4 0 .6.3.6.6s-.2.6-.6.6zM5 6.2c-.7 0-1.2-.5-1.2-1.2S4.3 3.8 5 3.8s1.2.5 1.2 1.2S5.7 6.2 5 6.2zm5 5c-1.4 0-2.5-.8-2.5-1.9S8.6 7.5 10 7.5s2.5.8 2.5 1.9-1.1 1.8-2.5 1.8zm4.4-5c-1 0-1.9-.8-1.9-1.9s.8-1.9 1.9-1.9c1 0 1.9.8 1.9 1.9s-.9 1.9-1.9 1.9z"/></svg>