<svg xmlns="http://www.w3.org/2000/svg" width="33.08" height="38.5" viewBox="0 0 33.08 38.5"><path fill="#bebfc6" d="M15.28 0v9.13H0V38.5h21.59l.68-1h4.53l.73 1h5.55V2.58zm-1.81 35.34H2v-2.08h11.47zm0-3.44H2v-2.09h11.47zm0-3.44H2v-2.09h11.47zm0-3.44H2v-2.09h11.47zm7.93 1h-3.6v-4.11h3.6zm0-5.64h-3.6v-4.1h3.6zm0-5.64h-3.6v-4.1h3.6zm0-5.64h-3.6V5h3.6zM22.68 5h3.6v4.13h-3.6zm0 5.64h3.6v4.13h-3.6zm0 5.64h3.6v4.13h-3.6zm0 5.64h3.6V26h-3.6zm4.12 14.44h-4.53v-8.07h4.53zM31.15 26h-3.6v-4.09h3.6zm0-5.64h-3.6v-4.08h3.6zm0-5.64h-3.6v-4.08h3.6zm0-5.64h-3.6V5h3.6z"/></svg>