<svg xmlns="http://www.w3.org/2000/svg" width="30.41" height="40.4" viewBox="0 0 30.41 40.4"><path fill="#bebfc6" d="M18.69 33.11a18.18 18.18 0 0 0 1.94-.24 18.84 18.84 0 0 0 6.82-2.69l-.91-1.4a17.24 17.24 0 0 1-6.19 2.65 16.79 16.79 0 0 1-3.83.34 17.55 17.55 0 0 1-2.89-.46 15.47 15.47 0 0 1-10.14-8 15 15 0 0 1-1.59-6.38 16.11 16.11 0 0 1 1.23-6.54 17.66 17.66 0 0 1 1.38-2.63 16.65 16.65 0 0 1 2.53-2.83 17.29 17.29 0 0 1 5.82-3.37l-.28-.78L12.3 0a18.84 18.84 0 0 0-6.24 3.86 18 18 0 0 0-2.64 3.12A17.42 17.42 0 0 0 1.7 9.75 16.65 16.65 0 0 0 0 16.94a16 16 0 0 0 1.7 7.26 16.25 16.25 0 0 0 4.81 5.7 16.63 16.63 0 0 0 6.79 2.93 16.42 16.42 0 0 0 2.2.26v3.27l-5.12 2.18v1.86h13.5v-1.86l-5.19-2.21v-3.22z"/><circle fill="#bebfc6" cx="17.49" cy="16.14" r="12.91"/></svg>