<svg xmlns="http://www.w3.org/2000/svg" width="42.62" height="28.86" viewBox="0 0 42.62 28.86"><path fill="#bebfc6" d="M33.77 0l8.85 16.12H-.04L8.81 0h24.92zm1.47 13.53a.58.58 0 0 0-.63-.49H8.03a.73.73 0 0 0-.45.14.44.44 0 0 0-.19.35.58.58 0 0 0 .63.49H34.6a.58.58 0 0 0 .64-.49zm-1.53-2.79a.53.53 0 0 0-.56-.49H9.5a.61.61 0 0 0-.4.14.47.47 0 0 0-.16.35.53.53 0 0 0 .56.49h23.65a.53.53 0 0 0 .56-.49zm-1-2.73a.51.51 0 0 0-.52-.49H10.37a.53.53 0 0 0-.37.14.48.48 0 0 0-.15.35.51.51 0 0 0 .52.49h21.82a.51.51 0 0 0 .56-.49zM30.9 5.63a.5.5 0 0 0 0-1H11.67a.44.44 0 0 0-.32.14.51.51 0 0 0-.13.35.48.48 0 0 0 .46.49h19.28zm-.19-3.13a.46.46 0 0 0-.43-.49h-18a.41.41 0 0 0-.31.14.53.53 0 0 0-.13.35.46.46 0 0 0 .43.49h18a.46.46 0 0 0 .47-.5zM40.27 18.23l2.35 4.27H0l2.35-4.27h37.92zM40.27 24.58l2.35 4.28H0l2.35-4.28h37.92z"/></svg>