<svg xmlns="http://www.w3.org/2000/svg" width="32.23" height="38.6" viewBox="0 0 32.23 38.6"><path fill="#fff" d="M15.06 11.25L3.67 14.01l9.55-10.34 1.84 7.58z"/><path fill="#bebfc6" d="M31.72 0H12.41a.52.52 0 0 0-.41.19L.12 14.39a.52.52 0 0 0-.12.33v23.36a.51.51 0 0 0 .52.52h31.2a.51.51 0 0 0 .51-.52V.51a.52.52 0 0 0-.51-.51zm-3.16 34.92H3.67V14l11.39-2.76-1.84-7.57h15.34z"/><path fill="#bebfc6" d="M18.64 27.32l-5.48-13.39a.15.15 0 0 0-.14-.09h-1.9a.15.15 0 0 0-.14.1L5.84 27.32a.15.15 0 0 0 .14.2h1.88a.15.15 0 0 0 .14-.1l1.44-4h5.39l1.53 4a.15.15 0 0 0 .14.1h2a.15.15 0 0 0 .14-.2zm-4.48-5.59h-4.11l1.4-3.73a17.44 17.44 0 0 0 .61-2c.2.63.46 1.38.79 2.24zM26.62 18.69H24V16.1a.15.15 0 0 0-.15-.15H21.2a.15.15 0 0 0-.15.15v2.6h-2.6a.15.15 0 0 0-.15.15v2.67a.15.15 0 0 0 .15.15h2.6v2.6a.15.15 0 0 0 .15.15h2.67a.15.15 0 0 0 .15-.15v-2.6h2.6a.15.15 0 0 0 .15-.15v-2.68a.15.15 0 0 0-.15-.15z"/></svg>