<svg xmlns="http://www.w3.org/2000/svg" width="37.76" height="37.44" viewBox="0 0 37.76 37.44"><path fill="#bebfc6" d="M30.5 18.11h-22v11.83h22V18.11z"/><path fill="#bebfc6" d="M36.77 31.63H34.6v-9a6.44 6.44 0 0 0 .59-.55 7.78 7.78 0 0 0-7.61-13.17 9.92 9.92 0 1 0-19.61 2.93H6.12a6.12 6.12 0 0 0-1.69 12v7.73h-2.2l-.22 1.64a2.64 2.64 0 0 0 0 .4v.5a3.31 3.31 0 0 0 3.31 3.31h28.45a3.31 3.31 0 0 0 3.31-3.31v-.47a2.77 2.77 0 0 0 0-.42zM6.32 16.85a.66.66 0 0 1 .65-.66h25.08a.66.66 0 0 1 .66.66v14.76H22.62v.4H16.5v-.4H6.39V16.85zm28.84 17.28a1.42 1.42 0 0 1-1.42 1.42H5.3a1.43 1.43 0 0 1-1.4-1.44v-.47a1.06 1.06 0 0 1 0-.16h10.82a.43.43 0 0 0 .43.4h8.75a.43.43 0 0 0 .43-.4h10.82a1.32 1.32 0 0 1 0 .16v.47z"/></svg>