<svg xmlns="http://www.w3.org/2000/svg" width="30.39" height="48.25" viewBox="0 0 30.39 48.25"><path fill="#bebfc6" d="M26.74 45.57h-17a8 8 0 0 1-4.81-1.44h21.78v-1.79H3.35a5.51 5.51 0 0 1-.63-1.88h24v-1.79h-24a5.51 5.51 0 0 1 .63-1.88h23.36V35H4.93a8 8 0 0 1 4.81-1.44h17a1.34 1.34 0 1 0 0-2.68h-17c-5.66 0-9.77 3.65-9.77 8.68s4.11 8.68 9.77 8.68h17a1.34 1.34 0 1 0 0-2.67zM24.97 7.24c-3.22-.69-7.3 3.86-9.62 2.77A30.88 30.88 0 0 0 7.8 7.56c-1.68-.14-6.72 2.3-6.92 7.58S9.22 29.31 11.2 29.56s2.38-2.3 4.31-2.05 2.18 1.94 4.63 2.08 7.45-7.77 9.61-13.39-1.57-8.27-4.78-8.96z"/><path fill="#bebfc6" d="M14.65 7.54l1.35.25s.54-6.33-1.45-7.79l-3.73 1.12s3.91 3.75 3.83 6.42zM21.04 2.82c-2.73 1.27-4.23 5.32-2.93 5.11 6.53-.44 7.2-7.09 7.2-7.09-8-1.3-8.51 6.92-8.51 6.92a8.23 8.23 0 0 1 4.24-4.94z"/></svg>