<svg xmlns="http://www.w3.org/2000/svg" width="34.92" height="43.4" viewBox="0 0 34.92 43.4"><path fill="#bebfc6" d="M4.76 32.68H3.43a1.15 1.15 0 0 0-1.15 1.15v7a2.38 2.38 0 0 0-1.51.87l-.66.83a.55.55 0 0 0 .43.9h33.83a.55.55 0 0 0 .43-.9l-.66-.83a2.38 2.38 0 0 0-1.37-.84v-7a1.15 1.15 0 0 0-1.15-1.15h-1a1.15 1.15 0 0 1 0 .13v4.64a1.11 1.11 0 0 1-2.22 0v-4.67a1.08 1.08 0 0 1 0-.13h-3.7a1.15 1.15 0 0 1 0 .13v4.64a1.11 1.11 0 0 1-2.22 0v-4.64a1.08 1.08 0 0 1 0-.13h-3.69a1.08 1.08 0 0 1 0 .13v4.64a1.11 1.11 0 0 1-2.22 0v-4.64a1.15 1.15 0 0 1 0-.13h-3.7a1.07 1.07 0 0 1 0 .13v4.64a1.11 1.11 0 1 1-2.22 0v-4.64a1.07 1.07 0 0 1 0-.13H7a1.08 1.08 0 0 1 0 .13v4.64a1.11 1.11 0 0 1-2.22 0v-4.64a1.08 1.08 0 0 1-.02-.13zM5 30a.9.9 0 0 0 .9.9H29a.9.9 0 1 0 0-1.81h-1.67v-4.75a.64.64 0 0 0-.64-.64h-.8a.69.69 0 0 1 0 .13v3a.71.71 0 1 1-1.43 0v-3a.72.72 0 0 1 0-.13h-2.4a.69.69 0 0 1 0 .13v3a.71.71 0 1 1-1.43 0v-3a.69.69 0 0 1 0-.13h-2.4a.71.71 0 0 1 0 .13v3a.71.71 0 1 1-1.43 0v-3a.69.69 0 0 1 0-.13h-2.33a.69.69 0 0 1 0 .13v3a.71.71 0 1 1-1.43 0v-3a.69.69 0 0 1 0-.13h-2.37a.69.69 0 0 1 0 .13v3a.71.71 0 1 1-1.43 0v-3a.69.69 0 0 1 0-.13h-.88a.64.64 0 0 0-.64.64v4.73H5.9A.9.9 0 0 0 5 30zM15.41 12.06v.73a8.83 8.83 0 0 0-6.76 7.76h-.38a.89.89 0 0 0 0 1.77h18.34a.89.89 0 1 0 0-1.77h-.38a8.83 8.83 0 0 0-6.76-7.76v-.73h-.53V7.63h.49v-1l-.76-.84v-1h-.53V1.72a.64.64 0 0 0 .39-.59V.64a.64.64 0 0 0-.65-.64h-1a.64.64 0 0 0-.64.64v.5a.64.64 0 0 0 .39.59v3.1h-.53v1l-.76.84v1h.49v4.42zm1.34-1.11V8.68a.64.64 0 0 1 .63-.68.64.64 0 0 1 .64.64v2.27a.64.64 0 0 1-.64.64.64.64 0 0 1-.63-.6z"/></svg>