<svg xmlns="http://www.w3.org/2000/svg" width="17.5" height="20" viewBox="0 0 17.5 20"><path fill="#BEBFC6" d="M8.7 6.2C7.1 4.5 0 3.4 0 11.4c0 5 6.3 10.4 8.7 7.9 2.5 2.5 8.7-3 8.7-7.9.1-8-7-6.9-8.7-5.2zm6.3 7.1c-.5 1.8-2 3.5-3.9 4.7 1.9-2.3 3.1-6.1 2-9.1-.3-.9-.7-1.6-1.1-2.3 2.2.8 4.1 2.7 3 6.7zM8.1 4c.3-.1.5-.1.8-.2-.1.3-.2.8-.2 1.2h.4c.4-1.7 1.7-3.7 3.5-3.7C12.6.4 12 0 11.3 0c-.7.3-1.3.9-1.7 1.8-.2.4-.5 1.1-.7 1.8 0-.2-.1-.4-.2-.6C8 .8 5.3-.5 2.8.2c-.3 0-.6.1-.8.2 0 .3 0 .5.1.8.8 2.1 3.5 3.4 6 2.8z"/></svg>