<svg xmlns="http://www.w3.org/2000/svg" width="20" height="20" viewBox="0 0 20 20"><path fill="#BEBFC6" d="M8 0H1.3C.6 0 0 .6 0 1.3V8c0 .7.6 1.3 1.3 1.3H8c.7 0 1.3-.6 1.3-1.3V1.3C9.3.6 8.7 0 8 0zm0 5.3H1.3V4H8v1.3zM18.7 0H12c-.7 0-1.3.6-1.3 1.3v17.3c0 .7.6 1.3 1.3 1.3h6.7c.7 0 1.3-.6 1.3-1.3V1.3c0-.7-.6-1.3-1.3-1.3zm0 12H12v-1.3h6.7V12zm0-4H12V6.7h6.7V8zM8 10.7H1.3c-.7 0-1.3.6-1.3 1.3v6.7c0 .7.6 1.3 1.3 1.3H8c.7 0 1.3-.6 1.3-1.3V12c0-.7-.6-1.3-1.3-1.3zM8 16H5.3v2.7H4V16H1.3v-1.3H4V12h1.3v2.7H8V16z"/></svg>