<svg xmlns="http://www.w3.org/2000/svg" width="27.53" height="36.29" viewBox="0 0 27.53 36.29"><path fill="#bebfc6" d="M11.12 22.08l2.84-.84a.39.39 0 0 0 .19-.62L4.36 8.37a.39.39 0 0 0-.31-.15h-.11l-2.41.71a.39.39 0 0 0-.28.34L-.01 24.76a.39.39 0 0 0 .39.42h.11l2.71-.79a.39.39 0 0 0 .28-.35l.23-3.78a.49.49 0 0 1 .35-.44l3.76-1.11h.14a.49.49 0 0 1 .39.19l2.33 3a.39.39 0 0 0 .31.15zm-5.3-6.2a.49.49 0 0 1-.33.32l-.85.25H4.5a.49.49 0 0 1-.49-.53l.09-1.26a.49.49 0 0 1 .35-.44h.14a.49.49 0 0 1 .39.2l.76 1a.49.49 0 0 1 .07.47zM21.62 15.29a9.81 9.81 0 0 0 2.4-.26 5 5 0 0 0 1.79-.82 4.32 4.32 0 0 0 1.24-1.56 4.79 4.79 0 0 0 .49-2.14 4.09 4.09 0 0 0-.83-2.56 3.83 3.83 0 0 0-.57-.61.49.49 0 0 1-.07-.67 3.6 3.6 0 0 0 .21-.31 4 4 0 0 0 .59-2.07 4.14 4.14 0 0 0-.66-2.22 4 4 0 0 0-1.84-1.6 7.12 7.12 0 0 0-2.84-.49h-5.55a.39.39 0 0 0-.39.39v14.51a.39.39 0 0 0 .39.39h5.63zm-2.6-11.58a.49.49 0 0 1 .49-.49h1.44a6.73 6.73 0 0 1 1.84.16.83.83 0 0 1 .49.38 1.37 1.37 0 0 1 .2.76 1.13 1.13 0 0 1-.21.73 1.09 1.09 0 0 1-.61.38 5.74 5.74 0 0 1-1.49.12h-1.66a.49.49 0 0 1-.49-.49V3.72zm0 5.75a.49.49 0 0 1 .49-.49h1.86a6 6 0 0 1 1.74.18 1.29 1.29 0 0 1 .68.49 1.46 1.46 0 0 1 .25.88 1.62 1.62 0 0 1-.17.75 1.21 1.21 0 0 1-.42.48 2.07 2.07 0 0 1-.74.26 7.41 7.41 0 0 1-1.1.05H19.5a.49.49 0 0 1-.49-.49v-2.1zM26.39 23.6a6.42 6.42 0 0 0-3.25-2.52 7.75 7.75 0 0 0-2.76-.52 7.47 7.47 0 0 0-1 .07 6.37 6.37 0 0 0-3.46 1.64 8.88 8.88 0 0 0-2.3 3.51 10.08 10.08 0 0 0-.67 4 6.39 6.39 0 0 0 1.2 3.64 7.28 7.28 0 0 0 3.41 2.39 7.06 7.06 0 0 0 2.5.48 6 6 0 0 0 1.83-.28 7 7 0 0 0 3.54-2.77l.23-.34a.39.39 0 0 0-.1-.54l-2.23-1.55a.39.39 0 0 0-.22-.07h-.08a.39.39 0 0 0-.25.17l-.22.35a3.74 3.74 0 0 1-1.85 1.61 2.86 2.86 0 0 1-.95.16 3.44 3.44 0 0 1-1.22-.24 3.7 3.7 0 0 1-1.6-1.17 3 3 0 0 1-.62-1.9 7.54 7.54 0 0 1 .55-2.73 7.42 7.42 0 0 1 1.2-2.08 3.13 3.13 0 0 1 1.7-1.1 2.9 2.9 0 0 1 .76-.1 4.21 4.21 0 0 1 1.48.3 2.89 2.89 0 0 1 1.49 1.12 3.49 3.49 0 0 1 .4 2.05v.39a.39.39 0 0 0 .34.4l2.63.34h.05a.39.39 0 0 0 .39-.36v-.43a6.22 6.22 0 0 0-.92-3.92z"/></svg>