<svg xmlns="http://www.w3.org/2000/svg" width="25" height="14.1" viewBox="0 0 25 14.1"><path fill="#BEBFC6" d="M14.1 9.5v-.8c.9-.8 1.6-2.3 1.6-4.1 0-2.6-1.4-4.7-3.1-4.7S9.4 2.1 9.4 4.7c0 1.7.6 3.3 1.6 4.1v.7c-3.6.4-6.3 2.3-6.3 4.6h15.6c0-2.3-2.7-4.2-6.2-4.6zm-6.2-.9c-.7-.4-1.5-.6-2.4-.7v-.4c.5-.4.8-1.2.8-2 0-1.3-.7-2.3-1.6-2.3-.9 0-1.6 1-1.6 2.3 0 .9.3 1.6.8 2v.4c-2.2.2-3.9 1.5-3.9 3h4.4c.8-.9 2-1.7 3.5-2.3zm13.2-.7v-.4c.5-.4.8-1.2.8-2 0-1.3-.7-2.3-1.6-2.3-.9 0-1.6 1-1.6 2.3 0 .9.3 1.6.8 2v.4c-.9.1-1.7.4-2.4.8 1.4.5 2.6 1.3 3.5 2.3H25c0-1.6-1.7-2.9-3.9-3.1z"/></svg>