<svg xmlns="http://www.w3.org/2000/svg" viewBox="0 0 72 40"><path fill="#447FC1" d="M15 19.7c0-.4.2-.8.6-1 5.9-2.9 12.5-4.5 19.5-4.5s13.5 1.6 19.4 4.5c.4.2.5.6.5 1v2.5c0 .8 1 1.4 1.7 1l13.5-5.9c.9-.4.9-1.7 0-2.1L36 .3c-.3-.1-.6-.1-.9 0L.9 15.3c-.9.4-.9 1.7 0 2.1l12.5 5.5c.7.3 1.6-.2 1.6-1v-2.2z"/><path fill="#48B971" d="M25.8 18.5c-2.4.5-4.8 1.2-7 2.1-.4.2-.8.6-.8 1.1v17.1c0 .6.8 1.5 1.4 1.5h6.7c.6 0 .9-.9.9-1.5V19.6c0-.7-.5-1.2-1.2-1.1z"/><path fill="#F4BD58" d="M35.1 17.6c-1.2 0-2.6.1-3.8.1-.6 0-1.3.5-1.3 1.1v16.5c0 .6 1.1 1.9 1.8 1.9h6.7c.6 0 1.5-1.3 1.5-1.9V18.8c0-.6-.6-1.1-1.2-1.1-1.2-.1-2.5-.1-3.7-.1z"/><path fill="#F3755C" d="M43 19.6V32c0 .6.5 1.3 1.1 1.3h6.7c.6 0 1.2-.7 1.2-1.3V21.6c0-.5-.3-.9-.7-1.1-2.2-.9-4.5-1.6-6.9-2.1-.7 0-1.4.5-1.4 1.2z"/></svg>