<svg xmlns="http://www.w3.org/2000/svg" viewBox="0 0 365 40"><path fill="#447FC1" d="M17 19.7c0-.4.3-.8.7-1 5.9-2.9 12.6-4.5 19.6-4.5s13.4 1.6 19.3 4.5c.4.2.4.6.4 1v2.5c0 .8 1.1 1.4 1.9 1l13.5-5.9c.9-.4 1-1.7.1-2.1L38.3.2c-.3-.1-.6-.1-.9 0l-34.2 15c-.9.4-.9 1.7 0 2.1l12.3 5.5c.7.3 1.5-.2 1.5-1v-2.1z"/><path class="ribbon-1" fill="#48B971" d="M27.9 18.5c-2.4.5-4.8 1.2-7.1 2.1-.4.2-.9.6-.9 1.1v17.1c0 .6 1 .8 1.7.8h6.7c.6 0 .6-.1.6-.8V19.6c.1-.7-.3-1.2-1-1.1z"/><path class="ribbon-2" fill="#F4BD58" d="M37.4 17.6c-1.2 0-2.8.1-3.9.1-.6 0-1.5.5-1.5 1.1v16.5c0 .6 1.4 1.1 2 1.1h6.7c.6 0 1.3-.5 1.3-1.1V18.8c0-.6-.5-1.1-1.1-1.1-1.1-.1-2.4-.1-3.5-.1z"/><path class="ribbon-3" fill="#F3755C" d="M45 19.6V32c0 .6.7.5 1.3.5H53c.6 0 .9.1.9-.5V21.6c0-.5-.2-.9-.6-1.1-2.2-.9-4.6-1.6-7-2.1-.6 0-1.3.5-1.3 1.2z"/><text transform="translate(86.387 32.974)"><tspan x="0" y="0" fill="#25235B">BusinessAnalytics</tspan><tspan x="232.3" y="0" fill="#25235B">.com</tspan></text></svg>