<svg version="1.1" id="Layer_1" xmlns="http://www.w3.org/2000/svg" xmlns:xlink="http://www.w3.org/1999/xlink" x="0px" y="0px"
	 viewBox="0 0 72 40" enable-background="new 0 0 72 40" xml:space="preserve">
	<g>
		<path fill="#447FC1" d="M15,19.7c0-0.4,0.2-0.8,0.6-1c5.9-2.9,12.5-4.5,19.5-4.5s13.5,1.6,19.4,4.5c0.4,0.2,0.5,0.6,0.5,1v2.5
			c0,0.8,1,1.4,1.7,1l13.5-5.9c0.9-0.4,0.9-1.7,0-2.1L36,0.3c-0.3-0.1-0.6-0.1-0.9,0l-34.2,15c-0.9,0.4-0.9,1.7,0,2.1l12.5,5.5
			c0.7,0.3,1.6-0.2,1.6-1V19.7z"/>
		<path fill="#48B971" d="M25.8,18.5c-2.4,0.5-4.8,1.2-7,2.1c-0.4,0.2-0.8,0.6-0.8,1.1v17.1c0,0.6,0.8,1.5,1.4,1.5h6.7
			c0.6,0,0.9-0.9,0.9-1.5V19.6C27,18.9,26.5,18.4,25.8,18.5z"/>
		<path fill="#F4BD58" d="M35.1,17.6c-1.2,0-2.6,0.1-3.8,0.1c-0.6,0-1.3,0.5-1.3,1.1v16.5c0,0.6,1.1,1.9,1.8,1.9h6.7
			c0.6,0,1.5-1.3,1.5-1.9V18.8c0-0.6-0.6-1.1-1.2-1.1C37.6,17.6,36.3,17.6,35.1,17.6z"/>
		<path fill="#F3755C" d="M43,19.6V32c0,0.6,0.5,1.3,1.1,1.3h6.7c0.6,0,1.2-0.7,1.2-1.3V21.6c0-0.5-0.3-0.9-0.7-1.1
			c-2.2-0.9-4.5-1.6-6.9-2.1C43.7,18.4,43,18.9,43,19.6z"/>
	</g>
</svg>
