<svg version="1.1" id="Layer_1" xmlns="http://www.w3.org/2000/svg" xmlns:xlink="http://www.w3.org/1999/xlink" x="0px" y="0px"
	 viewBox="0 0 365 40" enable-background="new 0 0 365 40" xml:space="preserve">
    <g>
    	<path fill="#447FC1" d="M17,19.7c0-0.4,0.3-0.8,0.7-1c5.9-2.9,12.6-4.5,19.6-4.5s13.4,1.6,19.3,4.5c0.4,0.2,0.4,0.6,0.4,1v2.5
    		c0,0.8,1.1,1.4,1.9,1l13.5-5.9c0.9-0.4,1-1.7,0.1-2.1l-34.2-15c-0.3-0.1-0.6-0.1-0.9,0l-34.2,15c-0.9,0.4-0.9,1.7,0,2.1l12.3,5.5
    		c0.7,0.3,1.5-0.2,1.5-1V19.7z"/>
    	<path class="ribbon-1" fill="#48B971" d="M27.9,18.5c-2.4,0.5-4.8,1.2-7.1,2.1c-0.4,0.2-0.9,0.6-0.9,1.1v17.1c0,0.6,1,0.8,1.7,0.8h6.7
    		c0.6,0,0.6-0.1,0.6-0.8V19.6C29,18.9,28.6,18.4,27.9,18.5z"/>
    	<path class="ribbon-2" fill="#F4BD58" d="M37.4,17.6c-1.2,0-2.8,0.1-3.9,0.1c-0.6,0-1.5,0.5-1.5,1.1v16.5c0,0.6,1.4,1.1,2,1.1h6.7
    		c0.6,0,1.3-0.5,1.3-1.1V18.8c0-0.6-0.5-1.1-1.1-1.1C39.8,17.6,38.5,17.6,37.4,17.6z"/>
    	<path class="ribbon-3" fill="#F3755C" d="M45,19.6V32c0,0.6,0.7,0.5,1.3,0.5h6.7c0.6,0,0.9,0.1,0.9-0.5V21.6c0-0.5-0.2-0.9-0.6-1.1
    		c-2.2-0.9-4.6-1.6-7-2.1C45.7,18.4,45,18.9,45,19.6z"/>
    	<text transform="matrix(1 0 0 1 86.3871 32.9741)"><tspan x="0" y="0" fill="#25235B">BusinessAnalytics</tspan><tspan x="232.3" y="0" fill="#25235B">.com</tspan></text>
    </g>
</svg>
